<svg xmlns="http://www.w3.org/2000/svg" viewBox="0 0 64 64"><defs><linearGradient id="av-ops-body" x1="0" y1="0" x2="0" y2="1"><stop stop-color="#dbe5f5"/><stop offset="1" stop-color="#7890b5"/></linearGradient></defs><path d="M32 18V7" stroke="#506789" stroke-width="3" stroke-linecap="round"/><circle cx="32" cy="5" r="3.5" fill="#ffd85a" stroke="#8c6721"/><path d="M9 39C8 25 18 17 32 17c16 0 25 9 23 23-2 13-12 17-24 17S11 52 9 39Z" fill="url(#av-ops-body)" stroke="#405575" stroke-opacity=".28" stroke-width="1.5"/><ellipse cx="24" cy="23" rx="8" ry="3" fill="#fff" opacity=".62"/><rect x="13" y="29" width="38" height="15" rx="7.5" fill="#fff" fill-opacity=".58" stroke="#20324e" stroke-width="2.2"/><path d="m17 37 4-3 4 6 4-8 5 9 4-6 4 3 5-2" fill="none" stroke="#20324e" stroke-width="2" stroke-linecap="round" stroke-linejoin="round"/><circle cx="23" cy="50" r="3.5" fill="#20324e"/><circle cx="41" cy="50" r="3.5" fill="#20324e"/><circle cx="23" cy="49" r="1.2" fill="#fff"/><circle cx="41" cy="49" r="1.2" fill="#fff"/><ellipse cx="13" cy="47" rx="3" ry="2" fill="#f58fa9" opacity=".42"/><ellipse cx="51" cy="47" rx="3" ry="2" fill="#f58fa9" opacity=".42"/></svg>
