<svg xmlns="http://www.w3.org/2000/svg" viewBox="0 0 64 64"><defs><linearGradient id="av-translator-body" x1="0" y1="0" x2="0" y2="1"><stop stop-color="#e0f3b6"/><stop offset="1" stop-color="#91bd57"/></linearGradient></defs><path d="M17 22C7 15 10 6 17 7c7 1 9 8 9 14m21 1c10-7 7-16 0-15-7 1-9 8-9 14" fill="#9bc35c" stroke="#567d2a" stroke-width="1.3"/><path d="M16 10c4 3 6 6 7 10m25-10c-4 3-6 6-7 10" fill="none" stroke="#6a9635"/><path d="M9 39C8 25 18 17 32 17c16 0 25 9 23 23-2 13-12 17-24 17S11 52 9 39Z" fill="url(#av-translator-body)" stroke="#567d2a" stroke-opacity=".28" stroke-width="1.5"/><ellipse cx="24" cy="23" rx="8" ry="3" fill="#fff" opacity=".62"/><circle cx="22" cy="36" r="9" fill="#fff" fill-opacity=".65" stroke="#27451d" stroke-width="2"/><path d="M13 36h18m-9-9v18m-6-15c5 4 5 8 0 12m12-12c-5 4-5 8 0 12" fill="none" stroke="#27451d" stroke-width="1.4"/><ellipse cx="43" cy="36" rx="7" ry="9" fill="#fff"/><circle cx="44" cy="37" r="4.5" fill="#27451d"/><circle cx="42" cy="34" r="2" fill="#fff"/><path d="M28 49q5 4 10 0" fill="none" stroke="#27451d" stroke-width="2.2" stroke-linecap="round"/><ellipse cx="51" cy="46" rx="4" ry="2.3" fill="#f58fa9" opacity=".45"/></svg>
