<svg xmlns="http://www.w3.org/2000/svg" viewBox="0 0 256 192"><defs><linearGradient id="parts-body" x1="0" y1="0" x2="0" y2="1"><stop stop-color="#bdf2cf"/><stop offset="1" stop-color="#55b982"/></linearGradient></defs><g id="body"><path d="M8 46C7 27 23 16 43 17c22 0 36 12 34 30-2 17-17 23-36 22C21 69 10 62 8 46Z" fill="url(#parts-body)" stroke="#184a38" stroke-opacity=".16" stroke-width="2"/><ellipse cx="31" cy="25" rx="11" ry="4" fill="#fff" opacity=".52"/></g><g id="eyes" transform="translate(88 8)"><ellipse cx="18" cy="30" rx="8" ry="10" fill="#fff"/><ellipse cx="42" cy="30" rx="8" ry="10" fill="#fff"/><circle cx="20" cy="32" r="5" fill="#173047"/><circle cx="44" cy="32" r="5" fill="#173047"/><circle cx="18" cy="29" r="2.1" fill="#fff"/><circle cx="22" cy="34" r="1" fill="#fff"/><circle cx="42" cy="29" r="2.1" fill="#fff"/><circle cx="46" cy="34" r="1" fill="#fff"/><ellipse cx="7" cy="47" rx="5" ry="2.5" fill="#f58fa9" opacity=".5"/><ellipse cx="55" cy="47" rx="5" ry="2.5" fill="#f58fa9" opacity=".5"/></g><g id="mouths" transform="translate(160 10)" stroke="#173047" stroke-width="2.4" stroke-linecap="round" stroke-linejoin="round" fill="none"><path id="mouth-smile" d="M8 14q6 6 12 0"/><ellipse id="mouth-o" cx="43" cy="16" rx="3" ry="2.5" fill="#173047" stroke="none"/><path id="mouth-w" d="M65 14l4 4 4-4 4 4 4-4"/><path id="mouth-wave" d="M101 15q4 4 8 0t8 0"/></g><g id="tops" transform="translate(8 88)" fill="#68c794" stroke="#184a38" stroke-opacity=".18" stroke-width="2"><path id="top-tuft" d="M15 24C7 13 12 5 17 2c-1 8 8 10 3 22Z"/><g id="top-round"><circle cx="55" cy="17" r="10"/><circle cx="83" cy="17" r="10"/><circle cx="55" cy="17" r="5" fill="#ffc5d7"/><circle cx="83" cy="17" r="5" fill="#ffc5d7"/></g><g id="top-point"><path d="M110 29 104 4q17 6 19 24Z"/><path d="m146 29 6-25q-17 6-19 24Z"/></g></g><g id="internals" transform="translate(8 150)" fill="#fff" opacity=".55"><g id="inside-bubbles"><circle cx="10" cy="10" r="4"/><circle cx="23" cy="18" r="2.5"/><circle cx="31" cy="7" r="2"/></g><g id="inside-sparkles" transform="translate(55)"><path d="m10 0 2.5 7.5L20 10l-7.5 2.5L10 20l-2.5-7.5L0 10l7.5-2.5Z"/><path d="m30 5 1.5 4.5L36 11l-4.5 1.5L30 17l-1.5-4.5L24 11l4.5-1.5Z"/></g></g><g id="palette-swatches" transform="translate(128 100)"><circle cx="8" cy="8" r="8" fill="#7197ed"/><circle cx="28" cy="8" r="8" fill="#60c690"/><circle cx="48" cy="8" r="8" fill="#f2a34a"/><circle cx="68" cy="8" r="8" fill="#a77ad9"/><circle cx="88" cy="8" r="8" fill="#58bed5"/><circle cx="108" cy="8" r="8" fill="#ee7775"/><circle cx="8" cy="28" r="8" fill="#748bac"/><circle cx="28" cy="28" r="8" fill="#91bd55"/><circle cx="48" cy="28" r="8" fill="#e986a9"/><circle cx="68" cy="28" r="8" fill="#947fd2"/><circle cx="88" cy="28" r="8" fill="#e6b94f"/><circle cx="108" cy="28" r="8" fill="#d7cbb8"/></g></svg>
